# xmcd
#
# Track frame offsets:
# 150
# 16966
# 34057
# 46471
#
# Disc length: 795 seconds
#
#
# Revision: 0
# Processed by: cddbd v1.5PL3 Copyright (c) Steve Scherf et al.
# Submitted via: FreeRIP 2.60 
#
DISCID=29031904
DTITLE=Iran e Ivan - 
DYEAR=2003
DGENRE=Sertanejo
TTITLE0=Iran e Ivan - 01
TTITLE1=Iran e Ivan - 02
TTITLE2=Iran e Ivan - Diamante seu abraço
TTITLE3=Iran e Ivan - Até suar até suar
EXTD=
EXTT0=
EXTT1=
EXTT2=
EXTT3=
PLAYORDER=
